Coordinates
version=1
nRows=26
nColumns=22
inDegrees=yes

Units are S.I. units (second, meters, Newtons, ...)
If the header above contains a line with 'inDegrees', this indicates whether rotational values are in degrees (yes) or radians (no).

endheader
time	pelvis_tilt	pelvis_list	pelvis_rotation	pelvis_tx	pelvis_ty	pelvis_tz	hip_flexion_r	hip_adduction_r	hip_rotation_r	knee_angle_r	ankle_angle_r	subtalar_angle_r	hip_flexion_l	hip_adduction_l	hip_rotation_l	knee_angle_l	ankle_angle_l	subtalar_angle_l	lumbar_extension	lumbar_bending	lumbar_rotation
      0.01000000	     -3.26476928	     -3.17789297	      1.85942769	      0.13548391	      1.01392314	      1.36200518	      5.41980642	      0.70494364	     -4.91941376	    -18.74444837	     13.31529488	      3.02092075	     -1.23815518	     -7.80545328	     -7.86416031	     -6.65377017	     10.42555228	      1.38549614	     -2.87450629	      0.48557860	     -3.52267021
      0.02000000	     -3.24689371	     -3.18312201	      1.91820937	      0.13588897	      1.01390066	      1.36281452	      5.35648811	      0.77120548	     -4.87930856	    -18.72569807	     13.36980700	      3.01568592	     -1.15963677	     -7.88200753	     -7.80537221	     -6.85667518	     10.47765975	      1.41949221	     -2.93611007	      0.50541892	     -3.55751131
      0.03000000	     -3.23805105	     -3.21917665	      2.01338811	      0.13639173	      1.01384702	      1.36373279	      5.28728202	      0.87256727	     -4.90852654	    -18.68967907	     13.40229654	      3.01063571	     -1.02237483	     -8.00839749	     -7.70046665	     -7.14759226	     10.59898637	      1.51924115	     -2.98750169	      0.56606141	     -3.59232434
      0.04000000	     -3.23257732	     -3.24873699	      2.10672705	      0.13693914	      1.01377501	      1.36481411	      5.21836962	      0.97906630	     -4.90953623	    -18.65550775	     13.45057957	      3.00273494	     -0.84523147	     -8.14161248	     -7.59193473	     -7.51059476	     10.72245106	      1.63107097	     -3.04693116	      0.61751597	     -3.62664492
      0.05000000	     -3.24481411	     -3.29109866	      2.20271461	      0.13751227	      1.01366617	      1.36601130	      5.17374791	      1.10500642	     -4.89924190	    -18.63424911	     13.47558950	      2.99797282	     -0.60756223	     -8.30072263	     -7.45842842	     -7.94987488	     10.86323507	      1.80873278	     -3.09183151	      0.68132266	     -3.65102822
      0.06000000	     -3.23839894	     -3.33001480	      2.29596214	      0.13815691	      1.01355770	      1.36728811	      5.09360686	      1.23349511	     -4.88352245	    -18.59243359	     13.54911909	      2.99203220	     -0.34977907	     -8.46560453	     -7.34166063	     -8.47153877	     11.03899069	      1.91993403	     -3.15886077	      0.73968106	     -3.65413384
      0.07000000	     -3.24579690	     -3.38603991	      2.38969912	      0.13881745	      1.01340968	      1.36860838	      5.03094039	      1.38199614	     -4.85737697	    -18.55675809	     13.60593047	      2.98917455	     -0.02374536	     -8.65675449	     -7.19901214	     -9.09182472	     11.24134516	      2.06856188	     -3.21141565	      0.82198569	     -3.65720170
      0.08000000	     -3.29311761	     -3.44589005	      2.47940730	      0.13946227	      1.01318971	      1.36997430	      5.02282125	      1.53670415	     -4.80190365	    -18.54218970	     13.64088719	      2.98372020	      0.40398249	     -8.85765261	     -7.03129010	     -9.81798413	     11.44403332	      2.33457883	     -3.22196484	      0.90641209	     -3.65579414
      0.09000000	     -3.27765375	     -3.50973173	      2.57075607	      0.14016913	      1.01301423	      1.37135213	      4.93804110	      1.69713962	     -4.76919339	    -18.51673115	     13.73821430	      2.97685075	      0.81205180	     -9.07032891	     -6.87475739	    -10.63549091	     11.69885959	      2.45489075	     -3.30561766	      0.99573999	     -3.63248781
      0.10000000	     -3.30298731	     -3.59175972	      2.66928853	      0.14084695	      1.01275740	      1.37275159	      4.90601435	      1.87727606	     -4.72910989	    -18.50398309	     13.80877760	      2.97384420	      1.33990778	     -9.30770389	     -6.68282090	    -11.58204969	     11.95557964	      2.64912372	     -3.34747107	      1.10219516	     -3.62023143
      0.11000000	     -3.37601066	     -3.66857821	      2.76298620	      0.14147764	      1.01241009	      1.37415403	      4.94471840	      2.04825658	     -4.67566896	    -18.52324586	     13.85889995	      2.97166682	      1.99131035	     -9.53927870	     -6.45566763	    -12.65487578	     12.18743800	      2.96131646	     -3.34033969	      1.20619449	     -3.60725060
      0.12000000	     -3.38974953	     -3.75923009	      2.87167351	      0.14213712	      1.01210312	      1.37554933	      4.91628783	      2.23385462	     -4.66852859	    -18.53843928	     13.95382095	      2.97409325	      2.64730426	     -9.79115592	     -6.21810357	    -13.84452919	     12.44858844	      3.16571260	     -3.40999566	      1.32294332	     -3.58279046
      0.13000000	     -3.41819294	     -3.84471358	      2.99831843	      0.14280534	      1.01174615	      1.37690354	      4.90155008	      2.40938696	     -4.68859833	    -18.55144027	     14.05917006	      2.98113002	      3.40326915	    -10.03749511	     -5.97128130	    -15.17546275	     12.67553679	      3.39569015	     -3.46447817	      1.43499884	     -3.56975661
      0.14000000	     -3.45563146	     -3.91465720	      3.14311428	      0.14349357	      1.01135815	      1.37821184	      4.89185878	      2.56351339	     -4.74429483	    -18.55860764	     14.17509773	      2.99355288	      4.25434193	    -10.26697832	     -5.73640361	    -16.64971918	     12.83698399	      3.65507939	     -3.51087438	      1.52896670	     -3.56635546
      0.15000000	     -3.43569939	     -3.99671547	      3.31474258	      0.14417392	      1.01102367	      1.37944370	      4.83362481	      2.72668549	     -4.84896578	    -18.58902414	     14.30402912	      3.01002618	      5.12806597	    -10.50496372	     -5.45673537	    -18.25810072	     12.97184719	      3.82446913	     -3.63760666	      1.64547294	     -3.56108752
      0.16000000	     -3.40876094	     -4.05730703	      3.51352662	      0.14488302	      1.01069814	      1.38059699	      4.76194440	      2.86218785	     -4.99985005	    -18.61178735	     14.44645518	      3.02645634	      6.08721365	    -10.71726460	     -5.19932785	    -20.01788392	     12.99677634	      3.97211092	     -3.77782998	      1.73812303	     -3.56680621
      0.17000000	     -3.35896351	     -4.09853916	      3.74255277	      0.14561999	      1.01041136	      1.38162567	      4.66474731	      2.97147405	     -5.18405834	    -18.63815411	     14.58273944	      3.03989331	      7.11607076	    -10.90104709	     -4.94590747	    -21.93054759	     12.90786970	      4.06927722	     -3.95077511	      1.81908031	     -3.57994732
      0.18000000	     -3.27016916	     -4.12207825	      3.99763529	      0.14640135	      1.01019300	      1.38256420	      4.52131727	      3.06208307	     -5.40016052	    -18.66132749	     14.72073987	      3.04130485	      8.18517028	    -11.06044918	     -4.70461124	    -23.97188105	     12.69163377	      4.08482897	     -4.17776797	      1.88155411	     -3.59458893
      0.19000000	     -3.15220450	     -4.12756269	      4.28254598	      0.14724032	      1.01003153	      1.38336673	      4.34015573	      3.13143066	     -5.63920313	    -18.68074747	     14.84854433	      3.02663032	      9.30198967	    -11.19029246	     -4.47782244	    -26.13092671	     12.34687124	      4.00797378	     -4.44283968	      1.93360594	     -3.60949978
      0.20000000	     -3.00155614	     -4.11672846	      4.58999176	      0.14815806	      1.00992961	      1.38405507	      4.11541667	      3.18500490	     -5.89154089	    -18.69459800	     14.96704913	      2.99182501	     10.44685003	    -11.29451908	     -4.27921451	    -28.37314873	     11.88513506	      3.82493146	     -4.74826915	      1.97177299	     -3.62024481
      0.21000000	     -2.82297894	     -4.09154515	      4.91488208	      0.14917254	      1.00988023	      1.38462778	      3.85034890	      3.22539432	     -6.14781546	    -18.70144629	     15.07435461	      2.93752915	     11.60381569	    -11.37516975	     -4.11992377	    -30.64902480	     11.34111606	      3.53288922	     -5.08458768	      1.99965039	     -3.62227577
      0.22000000	     -2.63806898	     -4.05412533	      5.24197654	      0.15030545	      1.00983978	      1.38509277	      3.57565874	      3.24959281	     -6.42394329	    -18.71778829	     15.18113747	      2.85761667	     12.77374916	    -11.44040792	     -4.04913590	    -32.90849067	     10.76510877	      3.09795651	     -5.42198826	      2.01687917	     -3.59273965
      0.23000000	     -2.43575468	     -4.00682371	      5.57791524	      0.15155674	      1.00983674	      1.38546105	      3.26492687	      3.26884300	     -6.67546124	    -18.71782111	     15.27811946	      2.77351138	     13.92101857	    -11.48791959	     -4.03529591	    -35.07973380	     10.21286895	      2.61006288	     -5.77239540	      2.02344064	     -3.55849602
      0.24000000	     -2.23082738	     -3.94750727	      5.92076094	      0.15293879	      1.00985624	      1.38570092	      2.92926722	      3.27773077	     -6.89327776	    -18.69505751	     15.37638736	      2.69853272	     15.04010119	    -11.51495514	     -4.10339663	    -37.10072774	      9.73621365	      2.14737206	     -6.11624517	      2.02202410	     -3.52430744
      0.25000000	     -2.07084414	     -3.86613469	      6.22731758	      0.15446473	      1.00981253	      1.38588397	      2.64838699	      3.24906918	     -7.14208392	    -18.70544480	     15.47683195	      2.61286229	     16.15022232	    -11.53162382	     -4.35359990	    -38.91362237	      9.43063449	      1.58134024	     -6.39546938	      1.98250212	     -3.42101662
      0.26000000	     -1.92497088	     -3.76785051	      6.53200234	      0.15611738	      1.00978130	      1.38594352	      2.35582698	      3.20284783	     -7.33844060	    -18.68818677	     15.60514770	      2.55197345	     17.21301817	    -11.52675450	     -4.71632239	    -40.46456663	      9.27818786	      1.13231975	     -6.64853563	      1.92720877	     -3.33215752
